<?xml version="1.0" encoding="UTF-8"?>
<svg width="256" height="256" version="1.1"
     xmlns="http://www.w3.org/2000/svg"
     xmlns:xlink="http://www.w3.org/1999/xlink">
  <defs>
    <linearGradient id="Gradient" x1="0" x2="0" y1="0" y2="1">
      <stop offset="0%" style="stop-color:#C061CB;stop-opacity:1" />
      <stop offset="100%" style="stop-color:#C061CB;stop-opacity:1" />
    </linearGradient>
    <filter id="alpha-to-white">
      <feColorMatrix in="SourceGraphic" type="matrix"
                     values="0 0 0 0 0
                             0 0 0 0 0
                             0 0 0 0 0
                             0 0 0 0.8 0"/>
    </filter>
    <g id="child-svg">
<svg xmlns="http://www.w3.org/2000/svg" height="16px" viewBox="0 0 16 16" width="16px"><path d="m 4 0 v 1 h 8.003906 v -1 z m 0 2 v 2 h 0.003906 l 1.996094 1.996094 v 10.003906 h 4.003906 v -10 l 2 -2 v -2 z m 4 5.5 c 0.554688 0 1 0.445312 1 1 v 2 c 0 0.554688 -0.445312 1 -1 1 s -1 -0.445312 -1 -1 v -2 c 0 -0.554688 0.445312 -1 1 -1 z m 0 0" fill="#222222"/></svg>
</g>
  </defs>
  <rect
      width="256"
      height="256"
      fill="url(#Gradient)"
      ry="128"
      x="0"
      y="0" />
  <use xlink:href="#child-svg" filter="url(#alpha-to-white)"
       transform="matrix(8,0,0,8,64,64)" />
</svg>
